<svg width="42" height="42" viewBox="0 0 42 42" fill="none" xmlns="http://www.w3.org/2000/svg">
<g id="cil:trash">
<path id="Vector" d="M7.875 38.7188C7.87106 39.2361 8.07248 39.7339 8.43508 40.103C8.79767 40.4721 9.29185 40.6823 9.80921 40.6875H32.1908C32.7081 40.6823 33.2023 40.4721 33.5649 40.103C33.9275 39.7339 34.1289 39.2361 34.125 38.7188V12.4688H7.875V38.7188ZM10.5 15.0938H31.5V38.0625H10.5V15.0938Z" fill="black"/>
<path id="Vector_2" d="M13.7812 17.7188H16.4062V34.125H13.7812V17.7188ZM19.6875 17.7188H22.3125V34.125H19.6875V17.7188ZM25.5938 17.7188H28.2188V34.125H25.5938V17.7188ZM26.9062 7.21875V3.28125C26.9062 2.17727 26.1279 1.3125 25.1344 1.3125H16.8656C15.8721 1.3125 15.0938 2.17727 15.0938 3.28125V7.21875H5.25V9.84375H36.75V7.21875H26.9062ZM17.7188 3.9375H24.2812V7.21875H17.7188V3.9375Z" fill="black"/>
</g>
</svg>
