<svg width="42" height="42" viewBox="0 0 42 42" fill="none" xmlns="http://www.w3.org/2000/svg">
<g id="ep:view">
<path id="Vector" d="M21 6.5625C34.125 6.5625 42 21 42 21C42 21 34.125 35.4375 21 35.4375C7.875 35.4375 0 21 0 21C0 21 7.875 6.5625 21 6.5625ZM21 9.1875C11.76 9.1875 5.24475 17.7214 3.08437 21C5.24213 24.276 11.7574 32.8125 21 32.8125C30.24 32.8125 36.7552 24.2786 38.9156 21C36.7579 17.724 30.2426 9.1875 21 9.1875ZM21 11.8125C23.4367 11.8125 25.7736 12.7805 27.4965 14.5035C29.2195 16.2264 30.1875 18.5633 30.1875 21C30.1875 23.4367 29.2195 25.7736 27.4965 27.4965C25.7736 29.2195 23.4367 30.1875 21 30.1875C18.5633 30.1875 16.2264 29.2195 14.5035 27.4965C12.7805 25.7736 11.8125 23.4367 11.8125 21C11.8125 18.5633 12.7805 16.2264 14.5035 14.5035C16.2264 12.7805 18.5633 11.8125 21 11.8125ZM21 14.4375C19.2602 14.4396 17.5922 15.1317 16.3619 16.3619C15.1317 17.5922 14.4396 19.2602 14.4375 21C14.4375 24.6173 17.3801 27.5625 21 27.5625C24.6199 27.5625 27.5625 24.6173 27.5625 21C27.5625 17.3827 24.6199 14.4375 21 14.4375Z" fill="black"/>
</g>
</svg>
