<svg width="42" height="42" viewBox="0 0 42 42" fill="none" xmlns="http://www.w3.org/2000/svg">
<g id="options">
<g id="icon / edit">
<path id="Vector" d="M12.4142 33.9438H14.3392L33.7204 14.5625L31.7954 12.6375L12.4142 32.0188V33.9438ZM39.2767 12.6813L33.6767 7.08125L35.5142 5.24375C36.0099 4.7479 36.6224 4.5 37.3517 4.5C38.0809 4.5 38.6934 4.7479 39.1892 5.24375L41.1142 7.16875C41.6099 7.66458 41.8579 8.27708 41.8579 9.00625C41.8579 9.7354 41.6099 10.3479 41.1142 10.8438L39.2767 12.6813ZM37.4392 14.5188L15.3892 36.5688H9.78915V30.9688L31.8392 8.91875L37.4392 14.5188ZM32.7579 13.6L31.7954 12.6375L33.7204 14.5625L32.7579 13.6Z" fill="#1E1E24"/>
</g>
</g>
</svg>
