<svg width="30" height="30" viewBox="0 0 30 30" fill="none" xmlns="http://www.w3.org/2000/svg">
<g id="cil:trash">
<path id="Vector" d="M5.62504 27.6562C5.62223 28.0258 5.7661 28.3814 6.0251 28.645C6.2841 28.9086 6.63708 29.0588 7.00662 29.0625H22.9935C23.363 29.0588 23.716 28.9086 23.975 28.645C24.234 28.3814 24.3779 28.0258 24.375 27.6562V8.90625H5.62504V27.6562ZM7.50004 10.7812H22.5V27.1875H7.50004V10.7812Z" fill="black"/>
<path id="Vector_2" d="M9.84375 12.6563H11.7188V24.375H9.84375V12.6563ZM14.0625 12.6563H15.9375V24.375H14.0625V12.6563ZM18.2812 12.6563H20.1562V24.375H18.2812V12.6563ZM19.2188 5.15625V2.34375C19.2188 1.5552 18.6628 0.9375 17.9531 0.9375H12.0469C11.3372 0.9375 10.7812 1.5552 10.7812 2.34375V5.15625H3.75V7.03125H26.25V5.15625H19.2188ZM12.6562 2.8125H17.3438V5.15625H12.6562V2.8125Z" fill="black"/>
</g>
</svg>
